<?xml version="1.0" encoding="utf-8"?><svg viewBox="0 0 150 50" xmlns="http://www.w3.org/2000/svg" xmlns:xlink="http://www.w3.org/1999/xlink"><style>:root>svg{display:none}:root>svg:target{display:block}</style><svg viewBox="0 0 50 25" id="arrow-left-sl" xmlns="http://www.w3.org/2000/svg"><g clip-path="url(#aa)"><path d="M1.22 12.5H50M11.382 25c0-6.25-10.163-9.375-10.163-12.5S11.382 7.292 11.382 0"/></g><defs><clipPath id="aa"/></defs></svg><svg viewBox="0 0 32 14" id="arrow-right" xmlns="http://www.w3.org/2000/svg"><path d="M23.429 0c0 3.5 5.714 5.25 5.714 7s-5.714 2.917-5.714 7m5.714-7H1.714"/></svg><svg viewBox="0 0 50 25" id="arrow-right-sl" xmlns="http://www.w3.org/2000/svg"><g clip-path="url(#ba)"><path d="M48.78 12.5H0M38.618 0c0 6.25 10.163 9.375 10.163 12.5S38.618 17.708 38.618 25"/></g><defs><clipPath id="ba"><path d="M0 0h50v25H0z"/></clipPath></defs></svg><svg viewBox="0 0 32 32" id="cart" xmlns="http://www.w3.org/2000/svg"><path d="m8.367 24.317-2.223-10a3 3 0 0 1 2.929-3.65h13.854a3 3 0 0 1 2.928 3.65l-2.222 10a3 3 0 0 1-2.929 2.35h-9.409a3 3 0 0 1-2.928-2.35z"/><path d="M12.364 13.778V8.97a3.636 3.636 0 1 1 7.273 0v4.808"/></svg><svg viewBox="0 0 100 50" id="logo" xmlns="http://www.w3.org/2000/svg"><path d="M0 23.358V6.922h2.155v5.596h7.959v1.897H2.155l-.051 8.829c0 5.44 3.026 8.528 8.01 8.528v1.948C3.544 33.73 0 29.834 0 23.358zm35.947 10.424c-4.155 0-6.622-1.595-7.45-4.518-.82 2.933-3.39 4.518-7.607 4.518-4.414 0-7.45-2.466-7.45-8.32V12.57h2.103v12.84c0 4.777 2.207 6.424 5.596 6.424 3.855 0 6.27-2.052 6.27-5.906V12.57h2.103v13.41c0 3.75 2.363 5.854 6.166 5.854 3.44 0 5.803-1.647 5.803-6.424V12.57h2.104v12.891c.02 5.866-3.12 8.322-7.638 8.322zM49.098 8.829c-.87 0-1.596-.622-1.596-1.44 0-.715.715-1.389 1.596-1.389.87 0 1.596.663 1.596 1.44 0 .778-.726 1.389-1.596 1.389zM48.02 33.534V12.57h2.104v20.953H48.02v.01zm27.524 13.554c0-3.336-1.493-6.476-6.01-6.476h-13.4l.052-.104h-.052c.156-3.596 1.182-6.321 3.855-7.648-3.751-1.647-6.321-5.243-6.321-9.502 0-6.83 5.544-10.736 11.813-10.736h3.596c2.881 0 3.803-1.948 3.803-4.114h1.026c-.052 1.896-.518 3.285-1.647 4.114h3.44v2s-4.984-.052-5.596-.052c3.389 1.233 5.855 4.83 5.855 8.788 0 5.958-4.88 10.528-11.098 10.528h-1.182c-3.7 0-5.336 2.156-5.803 4.777h10.529c2.922 0 3.855-1.948 3.855-4.113h1.026c-.104 2.103-.664 3.544-2.052 4.362 4.207.87 5.7 3.803 5.906 8.166h-1.595v.01zM64.808 14.581c-5.036 0-9.14 3.906-9.14 8.684 0 3.44 2.104 6.414 5.14 7.803-.518-.819-.767-1.897-.819-3.285h1.026c0 2.155.922 4.155 3.751 4.155h.052c5.037 0 9.14-3.855 9.14-8.684 0-4.777-4.114-8.673-9.15-8.673zm21.471 19.253c-1.845 0-5.036-.611-7.503-2.829l1.182-1.389c2.155 1.793 4.725 2.26 6.217 2.26 2.622-.052 5.088-1.596 5.037-3.959-.052-6.415-11.71-1.845-11.814-9.959-.052-3.13 3.13-5.544 6.518-5.647 1.44 0 4.26.363 6.622 2.155l-1.233 1.337c-1.751-1.233-4.01-1.596-5.192-1.596-2.31.052-4.673 1.544-4.673 3.7 0 6.166 11.658 1.948 11.813 9.917.062 3.399-3.016 5.958-6.974 6.01zm9.483-20.197c0-1.202.943-2.176 2.114-2.176 1.181 0 2.124.974 2.124 2.176 0 1.171-.943 2.156-2.124 2.156-1.171 0-2.114-.974-2.114-2.156zm3.824 0c0-.995-.757-1.813-1.71-1.813-.943 0-1.72.819-1.72 1.813 0 .985.766 1.793 1.72 1.793.953 0 1.71-.819 1.71-1.793zM97.15 12.57c.176-.02.394-.042.622-.042.632 0 .922.301.922.695a.671.671 0 0 1-.383.622l.518.829h-.539l-.414-.726c-.052.01-.083.01-.114.01-.042 0-.083 0-.166-.01v.726h-.456V12.57h.01zm.467 1.005c.072.01.124.01.176.01.259 0 .414-.124.414-.352 0-.186-.134-.3-.383-.3-.073 0-.135 0-.197.01v.632h-.01z"/></svg><svg viewBox="0 0 32 32" id="search" xmlns="http://www.w3.org/2000/svg"><path d="M13.333 8a8 8 0 1 1 0 16 8 8 0 0 1 0-16zm13.334 18.667-10-8"/></svg><svg viewBox="0 0 150 24" id="stars" xmlns="http://www.w3.org/2000/svg"><path d="m11.842 0 2.659 8.292h8.604l-6.961 5.124 2.659 8.292-6.96-5.124-6.962 5.124 2.66-8.292L.58 8.292h8.603L11.843 0zm31.579 0 2.659 8.292h8.604l-6.961 5.124 2.659 8.292-6.961-5.124-6.96 5.124 2.658-8.292-6.96-5.124h8.603L43.421 0zM75 0l2.659 8.292h8.604l-6.961 5.124 2.659 8.292L75 16.584l-6.96 5.124 2.658-8.292-6.96-5.124h8.603L75 0zm31.579 0 2.658 8.292h8.605l-6.961 5.124 2.658 8.292-6.96-5.124-6.96 5.124 2.658-8.292-6.96-5.124h8.603L106.579 0zm31.579 0 2.658 8.292h8.605l-6.961 5.124 2.658 8.292-6.96-5.124-6.96 5.124 2.658-8.292-6.961-5.124h8.604L138.158 0z"/></svg></svg>