<svg xmlns="http://www.w3.org/2000/svg" width="150" height="24"><path d="m11.842 0 2.659 8.292h8.604l-6.961 5.124 2.659 8.292-6.96-5.124-6.962 5.124 2.66-8.292L.58 8.292h8.603L11.843 0ZM43.421 0l2.659 8.292h8.604l-6.961 5.124 2.659 8.292-6.961-5.124-6.96 5.124 2.658-8.292-6.96-5.124h8.603L43.421 0ZM75 0l2.659 8.292h8.604l-6.961 5.124 2.659 8.292L75 16.584l-6.96 5.124 2.658-8.292-6.96-5.124h8.603L75 0ZM106.579 0l2.658 8.292h8.605l-6.961 5.124 2.658 8.292-6.96-5.124-6.96 5.124 2.658-8.292-6.96-5.124h8.603L106.579 0ZM138.158 0l2.658 8.292h8.605l-6.961 5.124 2.658 8.292-6.96-5.124-6.96 5.124 2.658-8.292-6.961-5.124h8.604L138.158 0Z"/></svg>